<svg width="16" height="16" viewBox="0 0 16 16" fill="none" xmlns="http://www.w3.org/2000/svg">
    <g clip-path="url(#clip0_0_7)">
        <path d="M7.07908 7.48593H6.93835C6.93835 7.48444 6.93766 7.48294 6.93737 7.48154L6.93352 7.46432C6.93105 7.453 6.92839 7.44177 6.92562 7.43064C6.92444 7.4254 6.92316 7.42016 6.92187 7.41492C6.91822 7.40023 6.91437 7.38554 6.91042 7.37085L6.90924 7.36664C6.9049 7.35074 6.90036 7.33489 6.89562 7.31911L6.89088 7.30386C6.88763 7.29301 6.88417 7.28225 6.88102 7.27149C6.87914 7.2656 6.87717 7.2598 6.87529 7.25399C6.87184 7.24361 6.86828 7.23322 6.86463 7.22293C6.86276 7.21751 6.86078 7.21199 6.85891 7.20665C6.8543 7.19374 6.84957 7.18092 6.8447 7.1682C6.84361 7.16549 6.84273 7.16287 6.84164 7.16015C6.83592 7.14518 6.8299 7.13031 6.82378 7.11543C6.82161 7.11 6.81934 7.10467 6.81707 7.09934C6.81292 7.08998 6.80878 7.07969 6.80453 7.06996L6.79654 7.0519C6.7924 7.04255 6.78815 7.03319 6.78381 7.02383C6.78114 7.01803 6.77838 7.01214 6.77562 7.00634C6.77058 6.99558 6.76575 6.98491 6.76012 6.97434C6.75805 6.97032 6.75618 6.9662 6.7541 6.96208C6.7471 6.94814 6.73989 6.93402 6.73259 6.92054L6.72272 6.90305L6.70881 6.87769L6.69795 6.85898C6.69341 6.85112 6.68887 6.84326 6.68423 6.8354C6.68058 6.82904 6.67683 6.82268 6.67308 6.81669C6.66795 6.80818 6.66321 6.79985 6.65759 6.79143L6.64338 6.7686C6.63667 6.75812 6.62995 6.74755 6.62305 6.73716C6.6187 6.73061 6.61436 6.72416 6.60992 6.7177C6.60548 6.71125 6.60064 6.70386 6.59591 6.69703C6.59117 6.6902 6.58604 6.68337 6.5817 6.67663C6.57736 6.66989 6.57262 6.66381 6.56798 6.65792C6.56334 6.65202 6.55811 6.64417 6.55308 6.63734L6.53916 6.61862C6.52929 6.60618 6.52021 6.59374 6.51054 6.5812L6.49702 6.56408C6.4913 6.55687 6.48538 6.54976 6.47956 6.54265L6.46653 6.52693C6.46051 6.51973 6.45439 6.51262 6.44827 6.50541L6.43544 6.49063L6.4163 6.46893L6.40495 6.45639C6.38136 6.43047 6.35718 6.40493 6.33241 6.38004L6.32156 6.3691L6.29886 6.34692L6.28771 6.33626C6.27981 6.32868 6.27192 6.32119 6.26392 6.3138L6.25573 6.30632C6.2278 6.28059 6.19909 6.25551 6.16988 6.23147L6.16188 6.22482C6.15287 6.21734 6.14379 6.20995 6.13464 6.20265L6.12556 6.19535C6.11569 6.18787 6.10671 6.18048 6.09714 6.17309L6.09231 6.16944C6.06004 6.14474 6.02697 6.12069 5.99362 6.09758L5.98898 6.09431C5.97842 6.0871 5.96786 6.07999 5.9572 6.07298L5.9502 6.06839C5.93934 6.06119 5.92839 6.05417 5.91743 6.04715L5.91556 6.04603C5.87924 6.02301 5.84223 6.00097 5.80453 5.97988L5.80305 5.97895C5.79111 5.9723 5.77917 5.96585 5.76723 5.95939L5.762 5.95659C5.69844 5.92259 5.63318 5.89141 5.5662 5.86303L5.56206 5.86125C5.54439 5.85376 5.52663 5.84656 5.50867 5.83945H5.86187C5.91941 5.83945 5.96609 5.77667 5.96609 5.69911C5.96609 5.62154 5.91941 5.55876 5.86187 5.55876H5.75667C5.76318 5.54305 5.77039 5.52527 5.77818 5.50525C5.87766 5.44649 6.05273 5.32131 6.22642 5.09133L6.2278 5.08956C6.24096 5.07234 6.25389 5.05453 6.26659 5.03613L6.26915 5.03248C6.28179 5.01443 6.29442 4.99581 6.30685 4.97635L6.31021 4.9712C6.31613 4.96185 6.32205 4.95249 6.32797 4.94313C6.32797 4.94313 6.32797 4.94239 6.32866 4.94192C6.33478 4.93256 6.3408 4.92227 6.34682 4.91226L6.35067 4.9058C6.3558 4.8972 6.36103 4.8884 6.36606 4.87951C6.36705 4.87792 6.36804 4.87633 6.36893 4.87465C6.37475 4.86454 6.38057 4.85425 6.3863 4.84387L6.39024 4.83666C6.39498 4.82805 6.39962 4.81935 6.40426 4.81056C6.40564 4.80813 6.40702 4.8056 6.4083 4.80307C6.41383 4.7925 6.41936 4.78183 6.42488 4.77098L6.42873 4.7634C6.43307 4.75461 6.43751 4.74563 6.44186 4.73664L6.44659 4.72729C6.45192 4.71625 6.45715 4.70502 6.46238 4.6937L6.46564 4.6865C6.46998 4.67714 6.47423 4.66778 6.47847 4.65843L6.4835 4.6472C6.48844 4.63588 6.49337 4.62447 6.49811 4.61296C6.499 4.6109 6.49988 4.60875 6.50067 4.60669C6.50512 4.59612 6.50946 4.58536 6.5138 4.5745L6.51873 4.56215C6.52278 4.55186 6.52683 4.54148 6.53077 4.53109L6.53374 4.52323C6.53837 4.51088 6.54291 4.49825 6.54745 4.48581L6.55219 4.47252C6.55574 4.46261 6.5592 4.4525 6.56265 4.4424C6.56393 4.43865 6.56522 4.43491 6.5664 4.43117C6.57074 4.41826 6.57509 4.40507 6.57933 4.39187C6.58071 4.38729 6.58219 4.38252 6.58357 4.37821L6.59344 4.34743C6.59472 4.34294 6.59611 4.33808 6.59739 4.33405C6.60143 4.32049 6.60548 4.30664 6.60933 4.2927C6.61061 4.2883 6.6118 4.28381 6.61298 4.27932C6.61594 4.26856 6.6189 4.2578 6.62176 4.24685C6.62305 4.24189 6.62433 4.23694 6.62571 4.23198C6.62936 4.21757 6.63301 4.20307 6.63657 4.18838L6.63953 4.17612C6.64229 4.16443 6.64505 4.15264 6.64772 4.14075L6.65127 4.12485C6.65463 4.1096 6.65798 4.09435 6.66114 4.07882C6.66183 4.07582 6.66242 4.07274 6.66302 4.06946C6.66578 4.05608 6.66844 4.04252 6.67101 4.02895C6.67209 4.02343 6.67308 4.01791 6.67417 4.01239C6.67673 3.99845 6.6792 3.98432 6.68167 3.97038C6.68216 3.96739 6.68275 3.96449 6.68325 3.96159C6.68601 3.94512 6.68871 3.92853 6.69134 3.91181C6.69223 3.9062 6.69312 3.90058 6.6939 3.89488C6.69598 3.88131 6.69795 3.86765 6.69992 3.8538L6.7017 3.84108C6.70407 3.82386 6.70634 3.80656 6.70851 3.78897C6.7092 3.78345 6.70979 3.77793 6.71048 3.77231C6.71219 3.75834 6.71377 3.74431 6.71522 3.73021C6.71581 3.72516 6.71641 3.7202 6.7169 3.71515C6.71881 3.69706 6.72058 3.67881 6.72223 3.66041C6.72223 3.65527 6.72312 3.65012 6.72351 3.64488C6.72479 3.6301 6.72608 3.61522 6.72716 3.60025C6.72716 3.59473 6.72805 3.58921 6.72845 3.58369C6.72983 3.56461 6.73111 3.5454 6.73229 3.52606C6.73229 3.52166 6.73229 3.5167 6.73298 3.51277C6.73387 3.49668 6.73476 3.4805 6.73545 3.46422C6.73545 3.45832 6.73545 3.45243 6.73624 3.44653C6.73703 3.42642 6.73782 3.40621 6.73841 3.38572C6.73841 3.38291 6.73841 3.38001 6.73841 3.37711C6.73894 3.3589 6.73933 3.3405 6.7396 3.32191C6.7396 3.31583 6.7396 3.30975 6.7396 3.30367C6.7396 3.28371 6.7396 3.26362 6.7396 3.24341V3.23873C6.7396 3.21722 6.7396 3.19542 6.7396 3.17324V3.15453C6.7396 3.13582 6.73881 3.11617 6.73831 3.09671V3.08614C6.73762 3.06368 6.73674 3.04095 6.73585 3.01812C6.73585 3.01222 6.73525 3.00623 6.73506 3.00034C6.7342 2.98113 6.73322 2.96179 6.7321 2.94233C6.7321 2.93756 6.7321 2.93298 6.73131 2.92783C6.72992 2.90444 6.72841 2.88086 6.72677 2.8571L6.72558 2.84054C6.7241 2.8207 6.72262 2.80078 6.72095 2.78066C6.72095 2.77486 6.72006 2.76906 6.71956 2.76326C6.71749 2.73893 6.71522 2.71433 6.71285 2.68963C6.71285 2.68495 6.71187 2.68027 6.71147 2.6755C6.7094 2.65445 6.70713 2.63321 6.70486 2.61178C6.70417 2.60533 6.70348 2.59896 6.70269 2.59251C6.69992 2.56706 6.69696 2.54152 6.69381 2.5156C6.69381 2.51242 6.69292 2.50924 6.69252 2.50625C6.68969 2.48304 6.6867 2.45972 6.68354 2.43626C6.68256 2.42934 6.68167 2.42242 6.68068 2.41549C6.677 2.38892 6.67321 2.36213 6.66933 2.33512C6.27458 -0.328931 3.47719 0.103414 3.47719 0.103414L3.5668 0.67582L1.875 2.37021L1.94892 3.02448L2.58979 3.39872C2.61836 3.32988 2.65504 3.26431 2.69914 3.20327C3.11264 2.75109 3.91487 2.39612 4.14451 2.32249C4.1905 2.3078 4.21665 2.30041 4.21665 2.30041C3.11817 3.64825 3.2431 5.19238 3.29205 5.56045C3.24113 5.5698 3.20175 5.62809 3.20175 5.6992C3.20175 5.77667 3.24843 5.83954 3.30597 5.83954H3.65917C3.07175 6.07266 2.60546 6.51663 2.36212 7.07455C2.36183 7.07531 2.3615 7.07606 2.36113 7.07679C2.34317 7.11821 2.32646 7.16022 2.311 7.20282C2.31103 7.20325 2.31103 7.20369 2.311 7.20413C2.30686 7.21573 2.30281 7.22733 2.29886 7.23903C2.29738 7.24324 2.2959 7.24745 2.29452 7.25175C2.29097 7.26223 2.28768 7.2728 2.28465 7.28347C2.28288 7.28889 2.2812 7.29441 2.27952 7.29984C2.27636 7.30985 2.2733 7.31996 2.27034 7.33006L2.26501 7.34877C2.26225 7.35813 2.25949 7.36814 2.25692 7.37787C2.25505 7.38479 2.25327 7.39162 2.25149 7.39855C2.24912 7.4079 2.24666 7.41726 2.24439 7.42662C2.24212 7.43597 2.23995 7.44533 2.23777 7.45524C2.2356 7.46516 2.23284 7.47676 2.23047 7.48762H2.08965C2.06256 7.48705 2.03564 7.49162 2.01044 7.50105C1.98525 7.51049 1.9623 7.5246 1.94294 7.54255C1.92357 7.56051 1.90819 7.58196 1.89768 7.60563C1.88718 7.6293 1.88177 7.65472 1.88177 7.6804C1.88177 7.70608 1.88718 7.7315 1.89768 7.75517C1.90819 7.77884 1.92357 7.80029 1.94294 7.81824C1.9623 7.8362 1.98525 7.85031 2.01044 7.85974C2.03564 7.86918 2.06256 7.87375 2.08965 7.87318H7.08086C7.10794 7.87375 7.13487 7.86918 7.16006 7.85974C7.18525 7.85031 7.2082 7.8362 7.22757 7.81824C7.24693 7.80029 7.26232 7.77884 7.27282 7.75517C7.28332 7.7315 7.28873 7.70608 7.28873 7.6804C7.28873 7.65472 7.28332 7.6293 7.27282 7.60563C7.26232 7.58196 7.24693 7.56051 7.22757 7.54255C7.2082 7.5246 7.18525 7.51049 7.16006 7.50105C7.13487 7.49162 7.10794 7.48705 7.08086 7.48762L7.07908 7.48593Z" fill="#595653"/>
        <path d="M13.9259 7.48593H13.7852C13.7852 7.48444 13.7845 7.48294 13.7842 7.48154L13.7803 7.46432C13.7779 7.453 13.7752 7.44177 13.7724 7.43064C13.7712 7.4254 13.77 7.42016 13.7687 7.41492C13.765 7.40023 13.7612 7.38554 13.7572 7.37085L13.756 7.36664C13.7517 7.35074 13.7472 7.33489 13.7424 7.31911L13.7377 7.30386C13.7344 7.29301 13.731 7.28225 13.7278 7.27149C13.7259 7.2656 13.724 7.2598 13.7221 7.25399C13.7186 7.24361 13.7151 7.23322 13.7114 7.22293C13.7096 7.21751 13.7076 7.21199 13.7057 7.20665C13.7011 7.19374 13.6964 7.18092 13.6915 7.1682C13.6904 7.16549 13.6895 7.16287 13.6884 7.16015C13.6827 7.14518 13.6767 7.13031 13.6706 7.11543C13.6684 7.11 13.6661 7.10467 13.6639 7.09934C13.6597 7.08998 13.6556 7.07969 13.6513 7.06996L13.6433 7.0519C13.6392 7.04255 13.635 7.03319 13.6306 7.02383C13.6279 7.01803 13.6252 7.01214 13.6224 7.00634C13.6174 6.99558 13.6126 6.98491 13.6069 6.97434C13.6049 6.97032 13.603 6.9662 13.6009 6.96208C13.5939 6.94814 13.5867 6.93402 13.5794 6.92054L13.5695 6.90305L13.5556 6.87769L13.5448 6.85898C13.5402 6.85112 13.5357 6.84326 13.531 6.8354C13.5274 6.82904 13.5236 6.82268 13.5199 6.81669C13.5148 6.80818 13.51 6.79985 13.5044 6.79143L13.4902 6.7686C13.4835 6.75812 13.4768 6.74755 13.4698 6.73716C13.4655 6.73061 13.4612 6.72416 13.4567 6.7177C13.4523 6.71125 13.4474 6.70386 13.4427 6.69703C13.438 6.6902 13.4328 6.68337 13.4285 6.67663C13.4242 6.66989 13.4194 6.66381 13.4148 6.65792C13.4101 6.65202 13.4049 6.64417 13.3999 6.63734L13.386 6.61862C13.3761 6.60618 13.367 6.59374 13.3573 6.5812L13.3438 6.56408C13.3381 6.55687 13.3322 6.54976 13.3264 6.54265L13.3133 6.52693C13.3073 6.51973 13.3012 6.51262 13.2951 6.50541L13.2822 6.49063L13.2631 6.46893L13.2517 6.45639C13.2282 6.43047 13.204 6.40493 13.1792 6.38004L13.1684 6.3691L13.1457 6.34692L13.1345 6.33626C13.1266 6.32868 13.1187 6.32119 13.1107 6.3138L13.1025 6.30632C13.0746 6.28059 13.0459 6.25551 13.0167 6.23147L13.0087 6.22482C12.9997 6.21734 12.9906 6.20995 12.9814 6.20265L12.9724 6.19535C12.9625 6.18787 12.9535 6.18048 12.9439 6.17309L12.9391 6.16944C12.9068 6.14474 12.8738 6.12069 12.8404 6.09758L12.8358 6.09431C12.8252 6.0871 12.8147 6.07999 12.804 6.07298L12.797 6.06839C12.7861 6.06119 12.7752 6.05417 12.7642 6.04715L12.7624 6.04603C12.726 6.02301 12.689 6.00097 12.6513 5.97988L12.6499 5.97895C12.6379 5.9723 12.626 5.96585 12.614 5.95939L12.6088 5.95659C12.5452 5.92259 12.48 5.89141 12.413 5.86303L12.4089 5.86125C12.3912 5.85376 12.3734 5.84656 12.3555 5.83945H12.7087C12.7662 5.83945 12.8129 5.77667 12.8129 5.69911C12.8129 5.62154 12.7662 5.55876 12.7087 5.55876H12.6035C12.61 5.54305 12.6172 5.52527 12.625 5.50525C12.7245 5.44649 12.8995 5.32131 13.0732 5.09133L13.0746 5.08956C13.0878 5.07234 13.1007 5.05453 13.1134 5.03613L13.116 5.03248C13.1286 5.01443 13.1412 4.99581 13.1537 4.97635L13.157 4.9712C13.1629 4.96185 13.1689 4.95249 13.1748 4.94313C13.1748 4.94313 13.1748 4.94239 13.1755 4.94192C13.1816 4.93256 13.1876 4.92227 13.1936 4.91226L13.1975 4.9058C13.2026 4.8972 13.2078 4.8884 13.2129 4.87951C13.2139 4.87792 13.2148 4.87633 13.2157 4.87465C13.2216 4.86454 13.2274 4.85425 13.2331 4.84387L13.237 4.83666C13.2418 4.82805 13.2464 4.81935 13.2511 4.81056C13.2524 4.80813 13.2538 4.8056 13.2551 4.80307C13.2606 4.7925 13.2662 4.78183 13.2717 4.77098L13.2755 4.7634C13.2799 4.75461 13.2843 4.74563 13.2887 4.73664L13.2934 4.72729C13.2987 4.71625 13.304 4.70502 13.3092 4.6937L13.3124 4.6865C13.3168 4.67714 13.321 4.66778 13.3253 4.65843L13.3303 4.6472C13.3352 4.63588 13.3402 4.62447 13.3449 4.61296C13.3458 4.6109 13.3467 4.60875 13.3475 4.60669C13.3519 4.59612 13.3563 4.58536 13.3606 4.5745L13.3655 4.56215C13.3696 4.55186 13.3736 4.54148 13.3776 4.53109L13.3805 4.52323C13.3852 4.51088 13.3897 4.49825 13.3943 4.48581L13.399 4.47252C13.4025 4.46261 13.406 4.4525 13.4095 4.4424C13.4107 4.43865 13.412 4.43491 13.4132 4.43117C13.4175 4.41826 13.4219 4.40507 13.4261 4.39187C13.4275 4.38729 13.429 4.38252 13.4304 4.37821L13.4402 4.34743C13.4415 4.34294 13.4429 4.33808 13.4442 4.33405C13.4482 4.32049 13.4523 4.30664 13.4561 4.2927C13.4574 4.2883 13.4586 4.28381 13.4598 4.27932C13.4627 4.26856 13.4657 4.2578 13.4686 4.24685C13.4698 4.24189 13.4711 4.23694 13.4725 4.23198C13.4762 4.21757 13.4798 4.20307 13.4834 4.18838L13.4863 4.17612C13.4891 4.16443 13.4919 4.15264 13.4945 4.14075L13.4981 4.12485C13.5014 4.1096 13.5048 4.09435 13.5079 4.07882C13.5086 4.07582 13.5092 4.07274 13.5098 4.06946C13.5126 4.05608 13.5152 4.04252 13.5178 4.02895C13.5189 4.02343 13.5199 4.01791 13.521 4.01239C13.5235 3.99845 13.526 3.98432 13.5285 3.97038C13.529 3.96739 13.5296 3.96449 13.53 3.96159C13.5328 3.94512 13.5355 3.92853 13.5381 3.91181C13.539 3.9062 13.5399 3.90058 13.5407 3.89488C13.5428 3.88131 13.5448 3.86765 13.5467 3.8538L13.5485 3.84108C13.5509 3.82386 13.5531 3.80656 13.5553 3.78897C13.556 3.78345 13.5566 3.77793 13.5573 3.77231C13.559 3.75834 13.5606 3.74431 13.562 3.73021C13.5626 3.72516 13.5632 3.7202 13.5637 3.71515C13.5656 3.69706 13.5674 3.67881 13.569 3.66041C13.569 3.65527 13.5699 3.65012 13.5703 3.64488C13.5716 3.6301 13.5729 3.61522 13.574 3.60025C13.574 3.59473 13.5749 3.58921 13.5752 3.58369C13.5766 3.56461 13.5779 3.5454 13.5791 3.52606C13.5791 3.52166 13.5791 3.5167 13.5798 3.51277C13.5807 3.49668 13.5816 3.4805 13.5823 3.46422C13.5823 3.45832 13.5823 3.45243 13.583 3.44653C13.5838 3.42642 13.5846 3.40621 13.5852 3.38572C13.5852 3.38291 13.5852 3.38001 13.5852 3.37711C13.5857 3.3589 13.5861 3.3405 13.5864 3.32191C13.5864 3.31583 13.5864 3.30975 13.5864 3.30367C13.5864 3.28371 13.5864 3.26362 13.5864 3.24341V3.23873C13.5864 3.21722 13.5864 3.19542 13.5864 3.17324V3.15453C13.5864 3.13582 13.5856 3.11617 13.5851 3.09671V3.08614C13.5844 3.06368 13.5835 3.04095 13.5826 3.01812C13.5826 3.01222 13.5821 3.00623 13.5819 3.00034C13.581 2.98113 13.58 2.96179 13.5789 2.94233C13.5789 2.93756 13.5789 2.93298 13.5781 2.92783C13.5767 2.90444 13.5752 2.88086 13.5736 2.8571L13.5724 2.84054C13.5709 2.8207 13.5694 2.80078 13.5677 2.78066C13.5677 2.77486 13.5669 2.76906 13.5664 2.76326C13.5643 2.73893 13.562 2.71433 13.5597 2.68963C13.5597 2.68495 13.5587 2.68027 13.5583 2.6755C13.5562 2.65445 13.5539 2.63321 13.5517 2.61178C13.551 2.60533 13.5503 2.59896 13.5495 2.59251C13.5467 2.56706 13.5438 2.54152 13.5406 2.5156C13.5406 2.51242 13.5397 2.50924 13.5393 2.50625C13.5365 2.48304 13.5335 2.45972 13.5303 2.43626C13.5294 2.42934 13.5285 2.42242 13.5275 2.41549C13.5238 2.38892 13.52 2.36213 13.5161 2.33512C13.1214 -0.328931 10.324 0.103414 10.324 0.103414L10.4136 0.67582L8.7218 2.37021L8.79572 3.02448L9.43659 3.39872C9.46516 3.32988 9.50185 3.26431 9.54594 3.20327C9.95944 2.75109 10.7617 2.39612 10.9913 2.32249C11.0373 2.3078 11.0635 2.30041 11.0635 2.30041C9.96497 3.64825 10.0899 5.19238 10.1389 5.56045C10.0879 5.5698 10.0486 5.62809 10.0486 5.6992C10.0486 5.77667 10.0952 5.83954 10.1528 5.83954H10.506C9.91855 6.07266 9.45226 6.51663 9.20892 7.07455C9.20864 7.07531 9.20831 7.07606 9.20794 7.07679C9.18997 7.11821 9.17326 7.16022 9.1578 7.20282C9.15783 7.20325 9.15783 7.20369 9.1578 7.20413C9.15366 7.21573 9.14961 7.22733 9.14566 7.23903C9.14418 7.24324 9.1427 7.24745 9.14132 7.25175C9.13777 7.26223 9.13448 7.2728 9.13145 7.28347C9.12968 7.28889 9.128 7.29441 9.12632 7.29984C9.12316 7.30985 9.1201 7.31996 9.11714 7.33006L9.11181 7.34877C9.10905 7.35813 9.10629 7.36814 9.10372 7.37787C9.10185 7.38479 9.10007 7.39162 9.09829 7.39855C9.09593 7.4079 9.09346 7.41726 9.09119 7.42662C9.08892 7.43597 9.08675 7.44533 9.08458 7.45524C9.08241 7.46516 9.07964 7.47676 9.07727 7.48762H8.93645C8.90937 7.48705 8.88244 7.49162 8.85725 7.50105C8.83205 7.51049 8.8091 7.5246 8.78974 7.54255C8.77038 7.56051 8.75499 7.58196 8.74449 7.60563C8.73398 7.6293 8.72857 7.65472 8.72857 7.6804C8.72857 7.70608 8.73398 7.7315 8.74449 7.75517C8.75499 7.77884 8.77038 7.80029 8.78974 7.81824C8.8091 7.8362 8.83205 7.85031 8.85725 7.85974C8.88244 7.86918 8.90937 7.87375 8.93645 7.87318H13.9277C13.9547 7.87375 13.9817 7.86918 14.0069 7.85974C14.0321 7.85031 14.055 7.8362 14.0744 7.81824C14.0937 7.80029 14.1091 7.77884 14.1196 7.75517C14.1301 7.7315 14.1355 7.70608 14.1355 7.6804C14.1355 7.65472 14.1301 7.6293 14.1196 7.60563C14.1091 7.58196 14.0937 7.56051 14.0744 7.54255C14.055 7.5246 14.0321 7.51049 14.0069 7.50105C13.9817 7.49162 13.9547 7.48705 13.9277 7.48762L13.9259 7.48593Z" fill="#595653"/>
        <path d="M6.95408 15.6585H6.81335C6.81335 15.657 6.81266 15.6555 6.81237 15.6541L6.80852 15.6369C6.80605 15.6255 6.80339 15.6143 6.80062 15.6032C6.79944 15.5979 6.79816 15.5927 6.79687 15.5875C6.79322 15.5728 6.78937 15.5581 6.78542 15.5434L6.78424 15.5392C6.7799 15.5233 6.77536 15.5074 6.77062 15.4917L6.76588 15.4764C6.76263 15.4656 6.75917 15.4548 6.75602 15.444C6.75414 15.4381 6.75217 15.4323 6.75029 15.4265C6.74684 15.4162 6.74328 15.4058 6.73963 15.3955C6.73776 15.3901 6.73578 15.3845 6.73391 15.3792C6.7293 15.3663 6.72457 15.3535 6.7197 15.3407C6.71861 15.338 6.71773 15.3354 6.71664 15.3327C6.71092 15.3177 6.7049 15.3029 6.69878 15.288C6.69661 15.2826 6.69434 15.2772 6.69207 15.2719C6.68792 15.2625 6.68378 15.2522 6.67953 15.2425L6.67154 15.2244C6.6674 15.2151 6.66315 15.2057 6.65881 15.1964C6.65614 15.1906 6.65338 15.1847 6.65062 15.1789C6.64558 15.1681 6.64075 15.1575 6.63512 15.1469C6.63305 15.1429 6.63118 15.1387 6.6291 15.1346C6.6221 15.1207 6.61489 15.1066 6.60759 15.0931L6.59772 15.0756L6.58381 15.0502L6.57295 15.0315C6.56841 15.0237 6.56387 15.0158 6.55923 15.0079C6.55558 15.0016 6.55183 14.9952 6.54808 14.9892C6.54295 14.9807 6.53821 14.9724 6.53259 14.964L6.51838 14.9411C6.51167 14.9307 6.50495 14.9201 6.49805 14.9097C6.4937 14.9032 6.48936 14.8967 6.48492 14.8903C6.48048 14.8838 6.47564 14.8764 6.47091 14.8696C6.46617 14.8627 6.46104 14.8559 6.4567 14.8492C6.45236 14.8424 6.44762 14.8364 6.44298 14.8305C6.43834 14.8246 6.43311 14.8167 6.42808 14.8099L6.41416 14.7912C6.40429 14.7787 6.39521 14.7663 6.38554 14.7537L6.37202 14.7366C6.3663 14.7294 6.36038 14.7223 6.35456 14.7152L6.34153 14.6995C6.33551 14.6923 6.32939 14.6852 6.32327 14.678L6.31044 14.6632L6.2913 14.6415L6.27995 14.6289C6.25636 14.603 6.23218 14.5775 6.20741 14.5526L6.19656 14.5416L6.17386 14.5195L6.16271 14.5088C6.15481 14.5012 6.14692 14.4937 6.13892 14.4863L6.13073 14.4789C6.1028 14.4531 6.07409 14.4281 6.04488 14.404L6.03688 14.3974C6.02787 14.3899 6.01879 14.3825 6.00964 14.3752L6.00056 14.3679C5.99069 14.3604 5.98171 14.353 5.97214 14.3456L5.96731 14.342C5.93504 14.3173 5.90197 14.2932 5.86862 14.2701L5.86398 14.2669C5.85342 14.2596 5.84286 14.2525 5.8322 14.2455L5.8252 14.2409C5.81434 14.2337 5.80339 14.2267 5.79243 14.2197L5.79056 14.2186C5.75424 14.1956 5.71723 14.1735 5.67953 14.1524L5.67805 14.1515C5.66611 14.1449 5.65417 14.1384 5.64223 14.1319L5.637 14.1291C5.57344 14.0951 5.50818 14.064 5.4412 14.0356L5.43706 14.0338C5.41939 14.0263 5.40163 14.0191 5.38367 14.012H5.73687C5.79441 14.012 5.84109 13.9492 5.84109 13.8717C5.84109 13.7941 5.79441 13.7313 5.73687 13.7313H5.63167C5.63818 13.7156 5.64539 13.6978 5.65318 13.6778C5.75266 13.619 5.92773 13.4939 6.10142 13.2639L6.1028 13.2621C6.11596 13.2449 6.12889 13.2271 6.14159 13.2087L6.14415 13.205C6.15679 13.187 6.16942 13.1684 6.18185 13.1489L6.18521 13.1437C6.19113 13.1344 6.19705 13.125 6.20297 13.1157C6.20297 13.1157 6.20297 13.1149 6.20366 13.1145C6.20978 13.1051 6.2158 13.0948 6.22182 13.0848L6.22567 13.0783C6.2308 13.0697 6.23603 13.0609 6.24106 13.0521C6.24205 13.0505 6.24304 13.0489 6.24393 13.0472C6.24975 13.0371 6.25557 13.0268 6.2613 13.0164L6.26524 13.0092C6.26998 13.0006 6.27462 12.9919 6.27926 12.9831C6.28064 12.9807 6.28202 12.9781 6.2833 12.9756C6.28883 12.965 6.29436 12.9544 6.29988 12.9435L6.30373 12.9359C6.30807 12.9272 6.31251 12.9182 6.31686 12.9092L6.32159 12.8998C6.32692 12.8888 6.33215 12.8776 6.33738 12.8662L6.34064 12.859C6.34498 12.8497 6.34923 12.8403 6.35347 12.831L6.3585 12.8197C6.36344 12.8084 6.36837 12.797 6.37311 12.7855C6.374 12.7834 6.37488 12.7813 6.37567 12.7792C6.38012 12.7687 6.38446 12.7579 6.3888 12.747L6.39373 12.7347C6.39778 12.7244 6.40183 12.714 6.40577 12.7036L6.40874 12.6958C6.41337 12.6834 6.41791 12.6708 6.42245 12.6584L6.42719 12.6451C6.43074 12.6352 6.4342 12.625 6.43765 12.6149C6.43893 12.6112 6.44022 12.6075 6.4414 12.6037C6.44574 12.5908 6.45009 12.5776 6.45433 12.5644C6.45571 12.5598 6.45719 12.5551 6.45857 12.5508L6.46844 12.52C6.46972 12.5155 6.47111 12.5106 6.47239 12.5066C6.47643 12.493 6.48048 12.4792 6.48433 12.4652C6.48561 12.4608 6.4868 12.4564 6.48798 12.4519C6.49094 12.4411 6.4939 12.4303 6.49676 12.4194C6.49805 12.4144 6.49933 12.4095 6.50071 12.4045C6.50436 12.3901 6.50801 12.3756 6.51157 12.3609L6.51453 12.3487C6.51729 12.337 6.52005 12.3252 6.52272 12.3133L6.52627 12.2974C6.52963 12.2821 6.53298 12.2669 6.53614 12.2514C6.53683 12.2484 6.53742 12.2453 6.53802 12.242C6.54078 12.2286 6.54344 12.2151 6.54601 12.2015C6.54709 12.196 6.54808 12.1905 6.54917 12.1849C6.55173 12.171 6.5542 12.1569 6.55667 12.1429C6.55716 12.1399 6.55775 12.137 6.55825 12.1341C6.56101 12.1177 6.56371 12.1011 6.56634 12.0844C6.56723 12.0787 6.56812 12.0731 6.5689 12.0674C6.57098 12.0539 6.57295 12.0402 6.57492 12.0264L6.5767 12.0136C6.57907 11.9964 6.58134 11.9791 6.58351 11.9615C6.5842 11.956 6.58479 11.9505 6.58548 11.9449C6.58719 11.9309 6.58877 11.9169 6.59022 11.9028C6.59081 11.8977 6.59141 11.8927 6.5919 11.8877C6.59381 11.8696 6.59558 11.8514 6.59723 11.833C6.59723 11.8278 6.59812 11.8227 6.59851 11.8174C6.59979 11.8026 6.60108 11.7878 6.60216 11.7728C6.60216 11.7673 6.60305 11.7618 6.60345 11.7562C6.60483 11.7372 6.60611 11.7179 6.60729 11.6986C6.60729 11.6942 6.60729 11.6892 6.60798 11.6853C6.60887 11.6692 6.60976 11.653 6.61045 11.6368C6.61045 11.6309 6.61045 11.625 6.61124 11.6191C6.61203 11.599 6.61282 11.5788 6.61341 11.5583C6.61341 11.5555 6.61341 11.5526 6.61341 11.5497C6.61394 11.5314 6.61433 11.513 6.6146 11.4945C6.6146 11.4884 6.6146 11.4823 6.6146 11.4762C6.6146 11.4563 6.6146 11.4362 6.6146 11.416V11.4113C6.6146 11.3898 6.6146 11.368 6.6146 11.3458V11.3271C6.6146 11.3084 6.61381 11.2887 6.61331 11.2693V11.2587C6.61262 11.2362 6.61174 11.2135 6.61085 11.1907C6.61085 11.1848 6.61025 11.1788 6.61006 11.1729C6.6092 11.1537 6.60822 11.1343 6.6071 11.1149C6.6071 11.1101 6.6071 11.1055 6.60631 11.1004C6.60492 11.077 6.60341 11.0534 6.60177 11.0296L6.60058 11.0131C6.5991 10.9933 6.59762 10.9733 6.59595 10.9532C6.59595 10.9474 6.59506 10.9416 6.59456 10.9358C6.59249 10.9115 6.59022 10.8869 6.58785 10.8622C6.58785 10.8575 6.58687 10.8528 6.58647 10.848C6.5844 10.827 6.58213 10.8058 6.57986 10.7843C6.57917 10.7779 6.57848 10.7715 6.57769 10.7651C6.57492 10.7396 6.57196 10.7141 6.56881 10.6881C6.56881 10.685 6.56792 10.6818 6.56752 10.6788C6.56469 10.6556 6.5617 10.6323 6.55854 10.6088C6.55756 10.6019 6.55667 10.595 6.55568 10.588C6.552 10.5615 6.54821 10.5347 6.54433 10.5077C6.14958 7.84362 3.35219 8.27596 3.35219 8.27596L3.4418 8.84837L1.75 10.5428L1.82392 11.197L2.46479 11.5713C2.49336 11.5024 2.53004 11.4369 2.57414 11.3758C2.98764 10.9236 3.78987 10.5687 4.01951 10.495C4.0655 10.4803 4.09165 10.473 4.09165 10.473C2.99317 11.8208 3.1181 13.3649 3.16705 13.733C3.11613 13.7424 3.07675 13.8006 3.07675 13.8717C3.07675 13.9492 3.12343 14.0121 3.18097 14.0121H3.53417C2.94675 14.2452 2.48046 14.6892 2.23712 15.2471C2.23683 15.2479 2.2365 15.2486 2.23613 15.2493C2.21817 15.2908 2.20146 15.3328 2.186 15.3754C2.18603 15.3758 2.18603 15.3762 2.186 15.3767C2.18186 15.3883 2.17781 15.3999 2.17386 15.4116C2.17238 15.4158 2.1709 15.42 2.16952 15.4243C2.16597 15.4348 2.16268 15.4453 2.15965 15.456C2.15788 15.4614 2.1562 15.467 2.15452 15.4724C2.15136 15.4824 2.1483 15.4925 2.14534 15.5026L2.14001 15.5213C2.13725 15.5307 2.13449 15.5407 2.13192 15.5504C2.13005 15.5573 2.12827 15.5642 2.12649 15.5711C2.12412 15.5804 2.12166 15.5898 2.11939 15.5992C2.11712 15.6085 2.11495 15.6179 2.11277 15.6278C2.1106 15.6377 2.10784 15.6493 2.10547 15.6602H1.96465C1.93756 15.6596 1.91064 15.6642 1.88544 15.6736C1.86025 15.683 1.8373 15.6971 1.81794 15.7151C1.79857 15.7331 1.78319 15.7545 1.77268 15.7782C1.76218 15.8018 1.75677 15.8273 1.75677 15.8529C1.75677 15.8786 1.76218 15.904 1.77268 15.9277C1.78319 15.9514 1.79857 15.9728 1.81794 15.9908C1.8373 16.0087 1.86025 16.0229 1.88544 16.0323C1.91064 16.0417 1.93756 16.0463 1.96465 16.0457H6.95586C6.98294 16.0463 7.00987 16.0417 7.03506 16.0323C7.06025 16.0229 7.0832 16.0087 7.10257 15.9908C7.12193 15.9728 7.13732 15.9514 7.14782 15.9277C7.15832 15.904 7.16373 15.8786 7.16373 15.8529C7.16373 15.8273 7.15832 15.8018 7.14782 15.7782C7.13732 15.7545 7.12193 15.7331 7.10257 15.7151C7.0832 15.6971 7.06025 15.683 7.03506 15.6736C7.00987 15.6642 6.98294 15.6596 6.95586 15.6602L6.95408 15.6585Z" fill="#595653"/>
        <path d="M13.9541 15.6585H13.8134C13.8134 15.657 13.8127 15.6555 13.8124 15.6541L13.8085 15.6369C13.806 15.6255 13.8034 15.6143 13.8006 15.6032C13.7994 15.5979 13.7982 15.5927 13.7969 15.5875C13.7932 15.5728 13.7894 15.5581 13.7854 15.5434L13.7842 15.5392C13.7799 15.5233 13.7754 15.5074 13.7706 15.4917L13.7659 15.4764C13.7626 15.4656 13.7592 15.4548 13.756 15.444C13.7541 15.4381 13.7522 15.4323 13.7503 15.4265C13.7468 15.4162 13.7433 15.4058 13.7396 15.3955C13.7378 15.3901 13.7358 15.3845 13.7339 15.3792C13.7293 15.3663 13.7246 15.3535 13.7197 15.3407C13.7186 15.338 13.7177 15.3354 13.7166 15.3327C13.7109 15.3177 13.7049 15.3029 13.6988 15.288C13.6966 15.2826 13.6943 15.2772 13.6921 15.2719C13.6879 15.2625 13.6838 15.2522 13.6795 15.2425L13.6715 15.2244C13.6674 15.2151 13.6632 15.2057 13.6588 15.1964C13.6561 15.1906 13.6534 15.1847 13.6506 15.1789C13.6456 15.1681 13.6407 15.1575 13.6351 15.1469C13.6331 15.1429 13.6312 15.1387 13.6291 15.1346C13.6221 15.1207 13.6149 15.1066 13.6076 15.0931L13.5977 15.0756L13.5838 15.0502L13.573 15.0315C13.5684 15.0237 13.5639 15.0158 13.5592 15.0079C13.5556 15.0016 13.5518 14.9952 13.5481 14.9892C13.543 14.9807 13.5382 14.9724 13.5326 14.964L13.5184 14.9411C13.5117 14.9307 13.505 14.9201 13.498 14.9097C13.4937 14.9032 13.4894 14.8967 13.4849 14.8903C13.4805 14.8838 13.4756 14.8764 13.4709 14.8696C13.4662 14.8627 13.461 14.8559 13.4567 14.8492C13.4524 14.8424 13.4476 14.8364 13.443 14.8305C13.4383 14.8246 13.4331 14.8167 13.4281 14.8099L13.4142 14.7912C13.4043 14.7787 13.3952 14.7663 13.3855 14.7537L13.372 14.7366C13.3663 14.7294 13.3604 14.7223 13.3546 14.7152L13.3415 14.6995C13.3355 14.6923 13.3294 14.6852 13.3233 14.678L13.3104 14.6632L13.2913 14.6415L13.2799 14.6289C13.2564 14.603 13.2322 14.5775 13.2074 14.5526L13.1966 14.5416L13.1739 14.5195L13.1627 14.5088C13.1548 14.5012 13.1469 14.4937 13.1389 14.4863L13.1307 14.4789C13.1028 14.4531 13.0741 14.4281 13.0449 14.404L13.0369 14.3974C13.0279 14.3899 13.0188 14.3825 13.0096 14.3752L13.0006 14.3679C12.9907 14.3604 12.9817 14.353 12.9721 14.3456L12.9673 14.342C12.935 14.3173 12.902 14.2932 12.8686 14.2701L12.864 14.2669C12.8534 14.2596 12.8429 14.2525 12.8322 14.2455L12.8252 14.2409C12.8143 14.2337 12.8034 14.2267 12.7924 14.2197L12.7906 14.2186C12.7542 14.1956 12.7172 14.1735 12.6795 14.1524L12.6781 14.1515C12.6661 14.1449 12.6542 14.1384 12.6422 14.1319L12.637 14.1291C12.5734 14.0951 12.5082 14.064 12.4412 14.0356L12.4371 14.0338C12.4194 14.0263 12.4016 14.0191 12.3837 14.012H12.7369C12.7944 14.012 12.8411 13.9492 12.8411 13.8717C12.8411 13.7941 12.7944 13.7313 12.7369 13.7313H12.6317C12.6382 13.7156 12.6454 13.6978 12.6532 13.6778C12.7527 13.619 12.9277 13.4939 13.1014 13.2639L13.1028 13.2621C13.116 13.2449 13.1289 13.2271 13.1416 13.2087L13.1442 13.205C13.1568 13.187 13.1694 13.1684 13.1819 13.1489L13.1852 13.1437C13.1911 13.1344 13.1971 13.125 13.203 13.1157C13.203 13.1157 13.203 13.1149 13.2037 13.1145C13.2098 13.1051 13.2158 13.0948 13.2218 13.0848L13.2257 13.0783C13.2308 13.0697 13.236 13.0609 13.2411 13.0521C13.2421 13.0505 13.243 13.0489 13.2439 13.0472C13.2497 13.0371 13.2556 13.0268 13.2613 13.0164L13.2652 13.0092C13.27 13.0006 13.2746 12.9919 13.2793 12.9831C13.2806 12.9807 13.282 12.9781 13.2833 12.9756C13.2888 12.965 13.2944 12.9544 13.2999 12.9435L13.3037 12.9359C13.3081 12.9272 13.3125 12.9182 13.3169 12.9092L13.3216 12.8998C13.3269 12.8888 13.3322 12.8776 13.3374 12.8662L13.3406 12.859C13.345 12.8497 13.3492 12.8403 13.3535 12.831L13.3585 12.8197C13.3634 12.8084 13.3684 12.797 13.3731 12.7855C13.374 12.7834 13.3749 12.7813 13.3757 12.7792C13.3801 12.7687 13.3845 12.7579 13.3888 12.747L13.3937 12.7347C13.3978 12.7244 13.4018 12.714 13.4058 12.7036L13.4087 12.6958C13.4134 12.6834 13.4179 12.6708 13.4225 12.6584L13.4272 12.6451C13.4307 12.6352 13.4342 12.625 13.4377 12.6149C13.4389 12.6112 13.4402 12.6075 13.4414 12.6037C13.4457 12.5908 13.4501 12.5776 13.4543 12.5644C13.4557 12.5598 13.4572 12.5551 13.4586 12.5508L13.4684 12.52C13.4697 12.5155 13.4711 12.5106 13.4724 12.5066C13.4764 12.493 13.4805 12.4792 13.4843 12.4652C13.4856 12.4608 13.4868 12.4564 13.488 12.4519C13.4909 12.4411 13.4939 12.4303 13.4968 12.4194C13.498 12.4144 13.4993 12.4095 13.5007 12.4045C13.5044 12.3901 13.508 12.3756 13.5116 12.3609L13.5145 12.3487C13.5173 12.337 13.5201 12.3252 13.5227 12.3133L13.5263 12.2974C13.5296 12.2821 13.533 12.2669 13.5361 12.2514C13.5368 12.2484 13.5374 12.2453 13.538 12.242C13.5408 12.2286 13.5434 12.2151 13.546 12.2015C13.5471 12.196 13.5481 12.1905 13.5492 12.1849C13.5517 12.171 13.5542 12.1569 13.5567 12.1429C13.5572 12.1399 13.5578 12.137 13.5582 12.1341C13.561 12.1177 13.5637 12.1011 13.5663 12.0844C13.5672 12.0787 13.5681 12.0731 13.5689 12.0674C13.571 12.0539 13.573 12.0402 13.5749 12.0264L13.5767 12.0136C13.5791 11.9964 13.5813 11.9791 13.5835 11.9615C13.5842 11.956 13.5848 11.9505 13.5855 11.9449C13.5872 11.9309 13.5888 11.9169 13.5902 11.9028C13.5908 11.8977 13.5914 11.8927 13.5919 11.8877C13.5938 11.8696 13.5956 11.8514 13.5972 11.833C13.5972 11.8278 13.5981 11.8227 13.5985 11.8174C13.5998 11.8026 13.6011 11.7878 13.6022 11.7728C13.6022 11.7673 13.6031 11.7618 13.6034 11.7562C13.6048 11.7372 13.6061 11.7179 13.6073 11.6986C13.6073 11.6942 13.6073 11.6892 13.608 11.6853C13.6089 11.6692 13.6098 11.653 13.6105 11.6368C13.6105 11.6309 13.6105 11.625 13.6112 11.6191C13.612 11.599 13.6128 11.5788 13.6134 11.5583C13.6134 11.5555 13.6134 11.5526 13.6134 11.5497C13.6139 11.5314 13.6143 11.513 13.6146 11.4945C13.6146 11.4884 13.6146 11.4823 13.6146 11.4762C13.6146 11.4563 13.6146 11.4362 13.6146 11.416V11.4113C13.6146 11.3898 13.6146 11.368 13.6146 11.3458V11.3271C13.6146 11.3084 13.6138 11.2887 13.6133 11.2693V11.2587C13.6126 11.2362 13.6117 11.2135 13.6108 11.1907C13.6108 11.1848 13.6103 11.1788 13.6101 11.1729C13.6092 11.1537 13.6082 11.1343 13.6071 11.1149C13.6071 11.1101 13.6071 11.1055 13.6063 11.1004C13.6049 11.077 13.6034 11.0534 13.6018 11.0296L13.6006 11.0131C13.5991 10.9933 13.5976 10.9733 13.5959 10.9532C13.5959 10.9474 13.5951 10.9416 13.5946 10.9358C13.5925 10.9115 13.5902 10.8869 13.5879 10.8622C13.5879 10.8575 13.5869 10.8528 13.5865 10.848C13.5844 10.827 13.5821 10.8058 13.5799 10.7843C13.5792 10.7779 13.5785 10.7715 13.5777 10.7651C13.5749 10.7396 13.572 10.7141 13.5688 10.6881C13.5688 10.685 13.5679 10.6818 13.5675 10.6788C13.5647 10.6556 13.5617 10.6323 13.5585 10.6088C13.5576 10.6019 13.5567 10.595 13.5557 10.588C13.552 10.5615 13.5482 10.5347 13.5443 10.5077C13.1496 7.84362 10.3522 8.27596 10.3522 8.27596L10.4418 8.84837L8.75 10.5428L8.82392 11.197L9.46479 11.5713C9.49336 11.5024 9.53004 11.4369 9.57414 11.3758C9.98764 10.9236 10.7899 10.5687 11.0195 10.495C11.0655 10.4803 11.0917 10.473 11.0917 10.473C9.99317 11.8208 10.1181 13.3649 10.1671 13.733C10.1161 13.7424 10.0768 13.8006 10.0768 13.8717C10.0768 13.9492 10.1234 14.0121 10.181 14.0121H10.5342C9.94675 14.2452 9.48046 14.6892 9.23712 15.2471C9.23683 15.2479 9.2365 15.2486 9.23613 15.2493C9.21817 15.2908 9.20146 15.3328 9.186 15.3754C9.18603 15.3758 9.18603 15.3762 9.186 15.3767C9.18186 15.3883 9.17781 15.3999 9.17386 15.4116C9.17238 15.4158 9.1709 15.42 9.16952 15.4243C9.16597 15.4348 9.16268 15.4453 9.15965 15.456C9.15788 15.4614 9.1562 15.467 9.15452 15.4724C9.15136 15.4824 9.1483 15.4925 9.14534 15.5026L9.14001 15.5213C9.13725 15.5307 9.13449 15.5407 9.13192 15.5504C9.13005 15.5573 9.12827 15.5642 9.12649 15.5711C9.12412 15.5804 9.12166 15.5898 9.11939 15.5992C9.11712 15.6085 9.11495 15.6179 9.11277 15.6278C9.1106 15.6377 9.10784 15.6493 9.10547 15.6602H8.96465C8.93756 15.6596 8.91064 15.6642 8.88544 15.6736C8.86025 15.683 8.8373 15.6971 8.81794 15.7151C8.79857 15.7331 8.78319 15.7545 8.77268 15.7782C8.76218 15.8018 8.75677 15.8273 8.75677 15.8529C8.75677 15.8786 8.76218 15.904 8.77268 15.9277C8.78319 15.9514 8.79857 15.9728 8.81794 15.9908C8.8373 16.0087 8.86025 16.0229 8.88544 16.0323C8.91064 16.0417 8.93756 16.0463 8.96465 16.0457H13.9559C13.9829 16.0463 14.0099 16.0417 14.0351 16.0323C14.0603 16.0229 14.0832 16.0087 14.1026 15.9908C14.1219 15.9728 14.1373 15.9514 14.1478 15.9277C14.1583 15.904 14.1637 15.8786 14.1637 15.8529C14.1637 15.8273 14.1583 15.8018 14.1478 15.7782C14.1373 15.7545 14.1219 15.7331 14.1026 15.7151C14.0832 15.6971 14.0603 15.683 14.0351 15.6736C14.0099 15.6642 13.9829 15.6596 13.9559 15.6602L13.9541 15.6585Z" fill="#595653"/>
    </g>
    <defs>
        <clipPath id="clip0_0_7">
            <rect width="16" height="16" fill="white"/>
        </clipPath>
    </defs>
</svg>
